<?xml version="1.0" encoding="utf-8"?>
<!-- Generator: Adobe Illustrator 25.4.1, SVG Export Plug-In . SVG Version: 6.00 Build 0)  -->
<svg version="1.1" id="Layer_1" xmlns="http://www.w3.org/2000/svg" xmlns:xlink="http://www.w3.org/1999/xlink" x="0px" y="0px"
	 viewBox="0 0 1080 1080" style="enable-background:new 0 0 1080 1080;" xml:space="preserve">
<style type="text/css">
	.st0{opacity:0.9;fill-rule:evenodd;clip-rule:evenodd;fill:#0EFD93;enable-background:new    ;}
</style>
<g>
	<circle class="st0" cx="320.2" cy="220.1" r="86.7"/>
	<g>
		<path d="M331.8,254.8V222c0-5.9-4.6-10.7-11-10.7c-6.4,0-12.2,5.4-12.2,10.2v33.2h-7.9v-69.4h7.9v23.7c2.4-2.3,6.7-4.9,12.6-4.9
			c10.9,0,18.6,8,18.6,18.1v32.4H331.8z"/>
	</g>
</g>
<g>
	<circle class="st0" cx="433.4" cy="353.3" r="86.7"/>
	<g>
		<path d="M413.5,338.4h24.8v42.4h15.2v7.1h-39.9v-7.1h16.8v-35.3h-16.8V338.4z M429.3,318.6h9.1v8.8h-9.1V318.6z"/>
	</g>
</g>
<g>
	<circle class="st0" cx="567.4" cy="594.7" r="86.7"/>
	<g>
		<path d="M587,628.9h-7.4v-3.5c-3.1,3.1-7.4,4.5-11.6,4.5h-1.4c-10.4,0-18.8-8.1-18.8-18.2v-15.2c0-10.1,8.4-18.2,18.8-18.2h1.2
			c4.2,0,8.5,1.8,11.6,4.7v-23.4h7.6V628.9z M555.9,612.2c0,5.9,4.8,10.7,11,10.7h1.1c6.2,0,11.1-4.9,11.1-10.8v-15.9
			c0-5.9-4.9-10.7-11.1-10.7h-1.1c-6.2,0-11,4.8-11,10.7V612.2z"/>
	</g>
</g>
<g>
	<circle class="st0" cx="609.9" cy="773.5" r="86.7"/>
	<g>
		<path d="M629.6,763.4h-8c0-4.3-3.2-8-7.6-8c-5.5,0-10.5,4.8-10.5,9.7v26.6h10.1v7.1h-23.3v-7.1h5.2v-42.4h7.7v4.3
			c2.4-3.2,6.2-5.3,11-5.3C624.6,748.2,629.6,757.1,629.6,763.4z"/>
	</g>
</g>
<g>
	<circle class="st0" cx="759.8" cy="859.9" r="86.7"/>
	<g>
		<path d="M771,880.6c-1.8,2.4-7,5.1-11.3,5.1h-1.9c-8.7,0-17-6.4-17-15.5c0-8.6,7.3-15.4,16.4-16l13.6-0.9v-2.6
			c0-5-3.9-9.4-9.3-9.4h-1c-4.3,0-8.8,2.8-9.5,7.2h-7.8c0.9-8.3,8.8-14.5,17.6-14.5h1c10.8,0,17,7.2,17,16.1v34.5H771V880.6z
			 M759.7,878.6c6.1,0,11-5.4,11-9.4v-8.6l-13,0.9c-5.2,0.4-9,4-9,8.7c0,4.7,4.7,8.4,9.5,8.4H759.7z"/>
	</g>
</g>
<g>
	<circle class="st0" cx="397.4" cy="532.7" r="86.7"/>
	<path d="M406.4,547.2c-1.7,2.3-4.5,4.2-8.3,4.2H397c-6.2,0-11.1-4.9-11.1-10.8v-5.5h31v-10.1c0-10.1-8-18.1-18.4-18.1h-1.8
		c-10.5,0-18.8,8-18.8,18.1v15.1c0,10.1,8.3,18.3,18.8,18.3h1.7c8.2,0,14.5-5.3,16.9-11.3H406.4z M385.9,524.8
		c0-5.9,4.9-10.7,11.1-10.7h1.2c6.2,0,10.9,4.8,10.9,10.7v3.2h-23.2V524.8z"/>
</g>
</svg>
