<?xml version="1.0" encoding="utf-8"?>
<!-- Generator: Adobe Illustrator 25.4.1, SVG Export Plug-In . SVG Version: 6.00 Build 0)  -->
<svg version="1.1" id="Layer_1" xmlns="http://www.w3.org/2000/svg" xmlns:xlink="http://www.w3.org/1999/xlink" x="0px" y="0px"
	 viewBox="0 0 1080 1080" style="enable-background:new 0 0 1080 1080;" xml:space="preserve">
<style type="text/css">
	
		.st0{opacity:0.9;fill-rule:evenodd;clip-rule:evenodd;fill:none;stroke:#0EFD93;stroke-width:7;stroke-miterlimit:10;enable-background:new    ;}
</style>
<circle class="st0" cx="284.7" cy="195.6" r="65.8"/>
<g>
	<path d="M293.5,222v-24.9c0-4.5-3.5-8.1-8.3-8.1c-4.9,0-9.3,4.1-9.3,7.7v25.2h-6v-52.7h6v18c1.8-1.7,5.1-3.7,9.6-3.7
		c8.3,0,14.1,6.1,14.1,13.7v24.6h-6.1V222z"/>
</g>
<circle class="st0" cx="456.8" cy="321.8" r="65.8"/>
<g>
	<path d="M441.7,310.5h18.8v32.2H472v5.4h-30.3v-5.4h12.7v-26.8h-12.7L441.7,310.5L441.7,310.5z M453.7,295.5h6.9v6.7h-6.9V295.5z"
		/>
</g>
<circle class="st0" cx="575.4" cy="549.4" r="65.8"/>
<g>
	<path d="M590.3,575.4h-5.6v-2.7c-2.4,2.4-5.6,3.4-8.8,3.4h-1.1c-7.9,0-14.3-6.1-14.3-13.8v-11.5c0-7.7,6.4-13.8,14.3-13.8h0.9
		c3.2,0,6.4,1.4,8.8,3.6v-17.8h5.8L590.3,575.4L590.3,575.4z M566.7,562.7c0,4.5,3.6,8.1,8.3,8.1h0.8c4.7,0,8.4-3.7,8.4-8.2v-12.1
		c0-4.5-3.7-8.1-8.4-8.1h-0.8c-4.7,0-8.3,3.6-8.3,8.1V562.7z"/>
</g>
<circle class="st0" cx="607.5" cy="745.8" r="65.8"/>
<g>
	<path d="M622.5,738.2h-6.1c0-3.3-2.4-6.1-5.8-6.1c-4.2,0-8,3.6-8,7.4v20.2h7.7v5.4h-17.7v-5.4h3.9v-32.2h5.8v3.3
		c1.8-2.4,4.7-4,8.3-4C618.7,726.6,622.5,733.4,622.5,738.2z"/>
</g>
<circle class="st0" cx="782" cy="882.4" r="65.8"/>
<g>
	<path d="M790.5,898.1c-1.4,1.8-5.3,3.9-8.6,3.9h-1.4c-6.6,0-12.9-4.9-12.9-11.8c0-6.5,5.5-11.7,12.4-12.1l10.3-0.7v-2
		c0-3.8-3-7.1-7.1-7.1h-0.8c-3.3,0-6.7,2.1-7.2,5.5h-5.9c0.7-6.3,6.7-11,13.4-11h0.8c8.2,0,12.9,5.5,12.9,12.2v26.2h-5.9V898.1z
		 M781.9,896.6c4.6,0,8.3-4.1,8.3-7.1V883l-9.9,0.7c-3.9,0.3-6.8,3-6.8,6.6c0,3.6,3.6,6.4,7.2,6.4H781.9L781.9,896.6z"/>
</g>
<circle class="st0" cx="411.6" cy="491.8" r="65.8"/>
<path d="M418.4,502.8c-1.3,1.7-3.4,3.2-6.3,3.2h-0.8c-4.7,0-8.4-3.7-8.4-8.2v-4.2h23.5v-7.7c0-7.7-6.1-13.7-14-13.7H411
	c-8,0-14.3,6.1-14.3,13.7v11.5c0,7.7,6.3,13.9,14.3,13.9h1.3c6.2,0,11-4,12.8-8.6L418.4,502.8L418.4,502.8z M402.8,485.8
	c0-4.5,3.7-8.1,8.4-8.1h0.9c4.7,0,8.3,3.6,8.3,8.1v2.4h-17.6V485.8z"/>
</svg>
